<?xml version="1.0" standalone="no"?>
<!DOCTYPE svg PUBLIC "-//W3C//DTD SVG 20010904//EN"
 "http://www.w3.org/TR/2001/REC-SVG-20010904/DTD/svg10.dtd">
<svg version="1.0" xmlns="http://www.w3.org/2000/svg"
 width="64.000000pt" height="64.000000pt" viewBox="0 0 64.000000 64.000000"
 preserveAspectRatio="xMidYMid meet">
<metadata>
Created by potrace 1.11, written by Peter Selinger 2001-2013
</metadata>
<g transform="translate(0.000000,64.000000) scale(0.100000,-0.100000)"
fill="#000000" stroke="none">
<path d="M122 601 c-57 -20 -92 -46 -92 -70 0 -8 11 -27 25 -42 22 -21 34 -60
69 -220 39 -174 46 -194 65 -197 15 -2 21 -11 21 -28 0 -24 1 -24 90 -24 89 0
90 0 85 23 -5 17 7 39 50 92 66 83 118 185 139 275 21 89 21 110 -3 110 -11 0
-23 -4 -26 -10 -3 -5 -13 -10 -22 -10 -9 0 -13 3 -10 7 10 9 -109 73 -176 95
-74 23 -147 23 -215 -1z m75 -95 c-33 -45 -40 -46 -51 -10 -9 29 17 54 55 54
l29 0 -33 -44z m81 36 c-7 -19 -94 -131 -100 -132 -5 0 -8 7 -8 17 0 23 78
123 96 123 9 0 14 -4 12 -8z m52 -8 c0 -4 -30 -48 -67 -97 -54 -73 -69 -87
-71 -70 -4 26 102 173 124 173 8 0 14 -3 14 -6z m50 -19 c0 -2 -37 -52 -81
-111 -57 -73 -84 -102 -90 -93 -5 8 2 27 19 49 15 20 47 64 72 98 25 34 53 62
63 62 9 0 17 -2 17 -5z m37 -28 c-2 -6 -44 -65 -93 -129 -66 -88 -90 -113 -95
-100 -7 20 156 242 178 242 8 0 13 -6 10 -13z m-247 -165 c23 -68 39 -126 37
-129 -3 -2 -21 45 -41 105 -20 60 -45 126 -56 147 -19 37 -19 37 1 20 10 -10
37 -74 59 -143z m285 148 c3 -5 -40 -71 -96 -145 -77 -102 -105 -133 -111
-122 -6 11 20 52 89 146 54 71 101 130 105 130 4 1 10 -3 13 -9z m41 -36 c-9
-25 -219 -294 -229 -294 -5 0 -7 8 -4 19 7 29 219 301 229 295 5 -3 7 -12 4
-20z m-2 -66 c-39 -110 -156 -268 -198 -268 -12 0 -16 5 -12 15 6 16 216 295
222 295 2 0 -4 -19 -12 -42z"/>
</g>
</svg>
