<?xml version="1.0" standalone="no"?>
<!DOCTYPE svg PUBLIC "-//W3C//DTD SVG 20010904//EN"
 "http://www.w3.org/TR/2001/REC-SVG-20010904/DTD/svg10.dtd">
<svg version="1.0" xmlns="http://www.w3.org/2000/svg"
 width="64.000000pt" height="64.000000pt" viewBox="0 0 64.000000 64.000000"
 preserveAspectRatio="xMidYMid meet">
<metadata>
Created by potrace 1.11, written by Peter Selinger 2001-2013
</metadata>
<g transform="translate(0.000000,64.000000) scale(0.100000,-0.100000)"
fill="#000000" stroke="none">
<path d="M460 620 c-42 -11 -108 -18 -185 -19 -90 -1 -128 -6 -154 -19 -51
-25 -57 -41 -37 -98 10 -27 35 -125 57 -219 21 -93 41 -181 44 -194 4 -17 11
-22 25 -18 16 4 20 0 20 -22 l0 -28 76 2 c64 1 78 4 87 21 5 10 32 47 59 81
95 120 131 243 111 373 -8 52 -10 55 -37 53 -37 -3 -39 -5 -25 -39 38 -98 -21
-294 -117 -387 -41 -40 -57 -40 -48 1 6 28 106 304 130 360 8 18 14 39 14 46
0 19 31 44 60 48 31 4 38 33 14 59 -9 10 -20 18 -23 18 -3 -1 -35 -10 -71 -19z
m-262 -68 c9 -7 10 -15 3 -35 -9 -23 -13 -25 -42 -17 -17 5 -34 12 -37 14 -10
11 8 35 30 39 13 2 25 5 28 5 3 1 11 -2 18 -6z m51 -14 c0 -7 -8 -33 -18 -57
-13 -33 -19 -40 -24 -27 -7 19 20 96 34 96 5 0 9 -6 8 -12z m41 -4 c0 -9 -12
-47 -27 -85 -19 -48 -29 -65 -35 -55 -5 8 3 42 20 85 26 68 42 89 42 55z m15
-89 c-42 -117 -59 -146 -51 -93 7 55 59 188 73 188 9 0 1 -32 -22 -95z m28
-48 c-25 -70 -50 -127 -55 -127 -15 0 -8 28 28 127 20 54 41 109 46 122 5 15
12 21 18 15 6 -6 -7 -56 -37 -137z m34 -28 c-37 -95 -64 -156 -70 -150 -13 13
103 320 119 314 7 -3 -9 -57 -49 -164z m100 154 c-3 -10 -26 -72 -51 -138 -97
-261 -90 -245 -99 -222 -5 12 5 41 88 257 17 47 35 93 38 103 4 9 12 17 18 17
6 0 9 -8 6 -17z m-260 -206 c18 -56 31 -103 29 -104 -2 -2 -17 38 -35 89 -17
51 -40 111 -51 133 l-19 40 22 -28 c12 -15 36 -74 54 -130z"/>
</g>
</svg>
